HIERARCHY
ROOT Hips
{
  OFFSET 0 89.5177 0.535
  CHANNELS 6 Xposition Yposition Zposition Zrotation Xrotation Yrotation
  JOINT Spine
  {
    OFFSET 12.0259 -0.162855 1.69034e-005
    CHANNELS 3 Zrotation Xrotation Yrotation
    JOINT Spine1
    {
      OFFSET 15.3169 -0.0121922 0
      CHANNELS 3 Zrotation Xrotation Yrotation
      JOINT Spine2
      {
        OFFSET 15.3176 -0.0121908 0
        CHANNELS 3 Zrotation Xrotation Yrotation
        JOINT Neck
        {
          OFFSET 19.9142 1.56338 0
          CHANNELS 3 Zrotation Xrotation Yrotation
          JOINT Head
          {
            OFFSET 6.92651 0 0
            CHANNELS 3 Zrotation Xrotation Yrotation
            End Site
            {
              OFFSET 20.7666 0 0
            }
          }
          JOINT LeftShoulder
          {
            OFFSET -6.20654 0.708824 7.28219
            CHANNELS 3 Zrotation Xrotation Yrotation
            JOINT LeftArm
            {
              OFFSET 14.108 0 -1.52588e-005
              CHANNELS 3 Zrotation Xrotation Yrotation
              JOINT LeftForeArm
              {
                OFFSET 28.5802 0 0
                CHANNELS 3 Zrotation Xrotation Yrotation
                JOINT LeftHand
                {
                  OFFSET 27.092 0 0
                  CHANNELS 3 Zrotation Xrotation Yrotation
                  End Site
                  {
                    OFFSET 9.55928 -0.186424 0.145352
                  }
                }
              }
            }
          }
          JOINT RightShoulder
          {
            OFFSET -6.20654 0.708866 -7.28218
            CHANNELS 3 Zrotation Xrotation Yrotation
            JOINT RightArm
            {
              OFFSET 14.108 0 1.52588e-005
              CHANNELS 3 Zrotation Xrotation Yrotation
              JOINT RightForeArm
              {
                OFFSET 28.5802 0 0
                CHANNELS 3 Zrotation Xrotation Yrotation
                JOINT RightHand
                {
                  OFFSET 27.092 0 0
                  CHANNELS 3 Zrotation Xrotation Yrotation
                  End Site
                  {
                    OFFSET 9.55929 -0.186417 -0.145354
                  }
                }
              }
            }
          }
        }
      }
    }
  }
  JOINT LeftUpLeg
  {
    OFFSET 0.005 -0.535 8.837
    CHANNELS 3 Zrotation Xrotation Yrotation
    JOINT LeftLeg
    {
      OFFSET 39.9035 0 0
      CHANNELS 3 Zrotation Xrotation Yrotation
      JOINT LeftFoot
      {
        OFFSET 39.6689 0 0
        CHANNELS 3 Zrotation Xrotation Yrotation
        JOINT LeftToe
        {
          OFFSET 10.1624 13.6296 0
          CHANNELS 3 Zrotation Xrotation Yrotation
          End Site
          {
            OFFSET 8.38147 0 0
          }
        }
      }
    }
  }
  JOINT RightUpLeg
  {
    OFFSET 0.005 -0.535 -8.837
    CHANNELS 3 Zrotation Xrotation Yrotation
    JOINT RightLeg
    {
      OFFSET 39.9035 0 0
      CHANNELS 3 Zrotation Xrotation Yrotation
      JOINT RightFoot
      {
        OFFSET 39.6689 0 0
        CHANNELS 3 Zrotation Xrotation Yrotation
        JOINT RightToe
        {
          OFFSET 10.1624 13.6296 0
          CHANNELS 3 Zrotation Xrotation Yrotation
          End Site
          {
            OFFSET 8.38147 0 0
          }
        }
      }
    }
  }
}
MOTION
Frames:	19
Frame Time:	0.0333333
197.668 88.3203 293.061 110.033 -17.728 14.7228 -1.58672 -3.36953 -1.94864 -3.29593 -6.6812 -4.00023 -3.29593 -6.6812 -4.00023 -8.30708e-012 -9.0191e-006 -5.27751e-005 15.3672 12.3108 -0.0226436 -178.933 -3.59739 -73.4704 15.6384 -12.8403 51.9363 -27.6194 -3.18055e-015 -4.77083e-015 -62.2314 -40.0527 -55.9577 -176.38 11.9374 72.9957 15.9493 -15.0658 -53.7569 -31.1072 -3.18055e-015 -7.95139e-015 -40.0259 49.6973 38.4702 4.38669 -6.14243 178.091 -18.7148 0 -0 -13.9546 15.6011 -33.5597 90 -7.95139e-016 -0 -39.5158 -4.50929 -171.283 -19.648 3.18056e-015 -4.77083e-015 14.7696 -2.99344 5.61483 90 -1.59028e-015 3.18055e-015 
189.094 85.7909 291.631 108.806 -17.4228 16.0753 -1.43257 -3.32857 -2.15936 -2.99743 -6.59911 -4.41239 -2.99743 -6.59911 -4.4124 -8.3041e-012 -9.0191e-006 -5.27751e-005 15.1996 8.25111 1.13388 -178.585 -5.47502 -75.489 23.5201 -12.2949 54.611 -43.6076 0 -0 -61.2958 -38.839 -53.0452 -176.454 12.6008 74.1431 23.5294 -14.6674 -50.425 -32.4674 -6.36111e-015 -0 -41.8373 49.436 40.2615 6.1028 -8.58548 176.797 -26.649 4.77083e-015 3.18055e-015 -9.56703 16.0119 -34.6278 90 -3.18055e-015 -6.36111e-015 -42.8264 -9.11617 -172.098 -22.6353 0 3.18056e-015 21.2489 -4.54396 -1.52111 90 -2.38542e-015 6.36111e-015 
181.279 82.6275 289.955 108.26 -17.2987 15.2895 -1.3057 -3.18224 -1.89815 -2.72264 -6.31805 -3.87723 -2.72264 -6.31805 -3.87724 -8.30748e-012 -9.0191e-006 -5.27751e-005 13.2424 2.08273 2.73717 -178.355 -7.14111 -76.9921 32.9371 -10.3072 55.0038 -67.9156 3.18055e-015 3.18055e-015 -63.3881 -38.6766 -57.7068 -176.54 13.0839 75.0473 29.8788 -13.8274 -47.0096 -34.2683 -6.36111e-015 -1.59028e-015 -43.9553 48.1901 42.7948 3.22554 -2.30706 -179.867 -41.8905 0 -6.36111e-015 -5.66762 15.5366 -33.4191 90 -3.18055e-015 1.59028e-015 -45.2789 -10.0245 -169.631 -28.9745 0 3.18056e-015 12.546 -3.17371 -9.90379 90 1.59028e-015 6.36111e-015 
175.095 79.7197 287.923 108.509 -18.6668 12.4666 -1.05358 -2.70599 -1.09398 -2.16233 -5.3904 -2.24119 -2.16233 -5.3904 -2.24119 -8.30708e-012 -9.0191e-006 -5.27751e-005 10.4306 -5.89622 4.80639 -178.006 -10.5061 -79.1884 37.6557 -9.27727 54.3665 -85.5077 -3.18055e-015 -6.36111e-015 -59.4671 -45.675 -56.0448 -176.567 13.4453 75.5331 34.6088 -9.55243 -45.2872 -33.9406 6.36111e-015 6.36111e-015 -45.994 46.2277 44.8529 -5.58722 3.50953 -172.643 -61.6533 0 -3.18055e-015 -6.97207 10.8907 -22.4286 90 1.98785e-016 4.96962e-017 -49.1969 -6.22428 -165.068 -42.9078 0 -3.18056e-015 16.8929 3.10203 -10.1961 90 6.36111e-015 -0 
169.17 78.4033 285.372 109.009 -20.892 11.0724 -0.796406 -2.25526 -0.575508 -1.61732 -4.50172 -1.18355 -1.61732 -4.50172 -1.18356 -8.30549e-012 -9.0191e-006 -5.27751e-005 9.24095 -12.4079 5.87206 -177.807 -12.7551 -80.1596 38.9422 -7.86027 51.6819 -93.5789 3.18055e-015 3.18055e-015 -60.2738 -47.2399 -57.7548 -176.395 12.736 74.0502 38.2628 0.0183381 -46.9187 -30.1813 -3.18055e-015 -3.18055e-015 -49.4387 42.5068 47.8054 -15.6746 3.28129 -168.452 -76.7952 4.77083e-015 -0 -9.41023 4.18301 -8.48892 90 -1.59028e-015 -1.59028e-015 -47.8982 -3.94411 -160.841 -48.6881 -3.18056e-015 -6.36111e-015 22.6265 4.47344 -10.7007 90 0 3.18055e-015 
163.55 79.1645 282.992 109.682 -20.3242 12.1884 -1.07746 -2.14933 -0.734942 -2.18472 -4.28379 -1.51163 -2.18472 -4.28379 -1.51164 -8.30828e-012 -9.0191e-006 -5.27751e-005 11.6461 -17.5336 7.28888 -178.285 -11.1009 -81.1608 39.1819 -4.9126 48.027 -95.0263 9.54166e-015 1.59028e-015 -64.0197 -50.7568 -63.7401 -176.384 11.8502 72.8931 41.3441 6.36141 -50.716 -27.9084 1.59028e-015 9.93923e-015 -55.6138 42.4288 55.4727 -26.3989 -2.19024 -170.524 -85.3561 -5.56597e-015 -3.18055e-015 -7.02028 0.965683 -2.18821 90 -3.18055e-015 1.59028e-015 -43.7163 -3.17621 -161.844 -48.6161 1.59028e-015 6.36111e-015 27.5826 3.47848 -9.20186 90 6.36111e-015 -0 
158.076 81.3759 280.075 109.778 -21.3069 12.9398 -1.11158 -1.61009 -0.974157 -2.2517 -3.20026 -1.98037 -2.2517 -3.20026 -1.98038 -8.31106e-012 -9.0191e-006 -5.27751e-005 13.7689 -21.6559 9.10502 -178.618 -9.43947 -81.6331 36.5966 -5.38009 47.1853 -91.5 -3.18055e-015 1.59028e-015 -70.407 -51.6978 -71.8177 -176.251 11.5638 71.9003 40.0369 7.68952 -55.4935 -27.2621 0 -3.18055e-015 -59.0928 44.8069 61.1848 -34.883 -6.70246 -172.698 -86.3836 -3.97569e-016 6.36111e-015 -2.49251 2.93535 -6.00326 90 0 -3.97569e-016 -35.2576 -1.66641 -162.79 -41.5994 -3.18056e-015 -3.18056e-015 28.4602 1.54056 -4.41602 90 -4.77083e-015 -0 
152.489 84.0257 276.85 110.727 -23.9178 16.7154 -1.25929 -0.848242 -1.76422 -2.5445 -1.65664 -3.54703 -2.5445 -1.65664 -3.54704 -8.30867e-012 -9.0191e-006 -5.27751e-005 14.9876 -24.1387 10.9686 -178.588 -8.93575 -80.9829 32.746 -7.90908 47.2864 -87.4633 3.18055e-015 -0 -72.8168 -53.916 -75.0984 -176.479 10.5719 71.4607 32.5239 3.72315 -58.961 -28.8864 -3.18055e-015 1.59028e-015 -58.2116 48.03 60.9603 -41.1317 -6.75402 -175.883 -80.2047 4.77083e-015 9.54166e-015 0.108591 4.10342 -8.23715 90 3.18055e-015 -7.95139e-015 -27.1533 3.29853 -165.404 -33.2473 4.77083e-015 6.36111e-015 25.4672 0.313448 -0.753916 90 -3.18055e-015 -0 
146.9 86.5639 273.674 112.145 -25.9823 21.0528 -1.4217 -0.38172 -2.58643 -2.85924 -0.698318 -5.1815 -2.85924 -0.698318 -5.18151 -8.30669e-012 -9.0191e-006 -5.27751e-005 14.6798 -24.8575 11.3448 -178.418 -8.69344 -79.6472 28.1471 -9.21498 46.8009 -84.8489 0 -0 -69.581 -52.6208 -70.838 -176.957 9.47476 72.1034 20.7074 -1.82651 -62.8905 -33.0455 3.18055e-015 1.59028e-015 -53.7044 48.0345 54.4971 -45.1505 -4.77881 -178.594 -68.8243 9.54166e-015 6.36111e-015 1.7128 2.40194 -4.78276 90 -3.18055e-015 3.18055e-015 -19.8633 5.32953 -169.913 -26.0601 9.54167e-015 6.36111e-015 21.1107 -2.19419 4.24567 90 6.36111e-015 -0 
141.304 88.3798 270.325 113.602 -28.2401 23.7537 -1.45399 -0.00593657 -3.05982 -2.90621 0.0662032 -6.11862 -2.90621 0.0662035 -6.11863 -8.30828e-012 -9.0191e-006 -5.27751e-005 13.1965 -24.6638 10.8561 -178.555 -7.41789 -78.9428 24.9195 -7.48454 46.9175 -85.5084 -3.18055e-015 7.95139e-016 -68.7682 -50.6954 -69.3101 -177.309 8.77533 72.877 7.0467 -5.973 -66.6856 -39.0485 6.36111e-015 -0 -48.2458 45.2295 45.533 -46.0819 -2.32937 -178.681 -53.5342 3.18055e-015 -9.54166e-015 2.60389 0.597695 -1.16902 90 -6.36111e-015 -0 -13.7245 6.63629 -172.969 -20.5849 -7.95139e-015 3.18056e-015 15.4857 -4.47448 8.85639 90 6.36111e-015 -0 
135.844 89.0274 266.854 115.813 -31.2813 25.4832 -1.54757 0.403399 -3.1487 -3.07078 0.891503 -6.28546 -3.07078 0.891504 -6.28547 -8.31026e-012 -9.0191e-006 -5.27751e-005 11.6557 -23.9461 9.89083 -178.762 -6.0647 -78.4369 21.5108 -3.7524 48.1613 -87.9958 9.54166e-015 3.97569e-016 -65.2882 -46.9606 -63.5633 -177.658 8.06349 73.7465 -4.47287 -8.22695 -69.2965 -45.4764 3.18055e-015 3.18055e-015 -45.8056 42.5417 40.0717 -45.0595 -0.500801 -176.701 -36.3772 -9.54166e-015 3.18055e-015 5.56176 1.83617 -3.62366 90 1.59028e-015 -3.18055e-015 -11.073 8.39132 -173.833 -20.7149 0 3.18056e-015 11.208 -5.83555 11.6567 90 0 -3.18055e-015 
130.293 88.4713 263.394 117.115 -34.5975 26.316 -1.54237 0.692867 -3.09978 -3.04537 1.46834 -6.18035 -3.04537 1.46834 -6.18036 -8.30907e-012 -9.0191e-006 -5.27751e-005 11.2526 -22.3106 9.24869 -178.989 -4.83704 -78.1768 16.035 0.497881 50.3213 -89.4176 -3.18055e-015 3.18055e-015 -63.1038 -40.5594 -57.9134 -178.021 7.21981 74.6262 -10.927 -8.85227 -71.4931 -50.8759 3.18055e-015 9.54166e-015 -46.3835 44.2157 40.8361 -43.1899 2.54761 -174.1 -23.5146 3.18055e-015 -1.59028e-015 12.1051 5.65169 -11.3364 90 1.59028e-015 9.54166e-015 -10.945 9.63836 -173.506 -27.568 -6.36111e-015 3.18056e-015 9.45733 -6.26083 12.5471 90 -3.18055e-015 -9.54166e-015 
124.456 86.9196 260.275 116.523 -37.4321 27.3217 -1.20722 0.680232 -3.35158 -2.37287 1.4302 -6.68867 -2.37287 1.4302 -6.68868 -8.30748e-012 -9.0191e-006 -5.27751e-005 10.4533 -20.0247 9.33498 -179.358 -2.95546 -77.7285 9.11158 2.97126 52.6955 -87.3914 -3.18055e-015 6.36111e-015 -65.0451 -33.7295 -55.9992 -178.184 6.64269 74.6726 -14.3317 -8.79197 -73.0107 -55.3602 0 3.18055e-015 -48.6038 46.748 44.998 -41.9677 7.54516 -173.372 -19.9772 -3.18055e-015 4.77083e-015 15.6857 8.75877 -17.7988 90 -3.18055e-015 -1.59028e-014 -12.1815 8.27998 -174.833 -40.0915 9.54167e-015 3.18056e-015 8.41078 -6.99244 14.0893 90 -3.18055e-015 6.36111e-015 
118.745 84.4885 257.216 114.866 -39.5217 27.8084 -0.808535 0.304083 -3.58393 -1.59651 0.658549 -7.16321 -1.59651 0.658549 -7.16322 -8.30549e-012 -9.0191e-006 -5.27751e-005 8.54706 -16.8217 8.69892 -179.886 -0.48069 -76.6136 2.59957 1.42531 54.6188 -78.3375 -3.18055e-015 -6.36111e-015 -67.2652 -26.6551 -52.2706 -178.244 6.23961 74.2478 -16.6432 -9.97864 -73.4813 -60.308 0 -0 -50.7353 47.533 48.1117 -39.3298 3.85215 -174.858 -22.0603 9.54166e-015 3.18055e-015 9.066 7.1088 -14.3913 90 0 -6.36111e-015 -15.8094 5.88091 -176.015 -56.5072 5.56597e-015 1.59028e-014 3.61123 -4.46108 8.88671 90 6.36111e-015 -3.18055e-015 
113.276 81.2454 254.508 113.62 -41.9268 28.6387 -0.552571 -0.253541 -3.78729 -1.12068 -0.469552 -7.57677 -1.12068 -0.469551 -7.57678 -8.30828e-012 -9.0191e-006 -5.27751e-005 6.23875 -12.8209 7.65776 179.713 1.04135 -74.5957 -5.20051 -4.3982 53.2076 -60.2817 0 -9.54166e-015 -70.1392 -21.5184 -50.5663 -178.236 5.99339 73.5702 -18.628 -12.3934 -73.4178 -65.5543 3.18055e-015 3.18055e-015 -50.8031 47.1469 47.4539 -43.5729 6.20196 -174.307 -41.0976 0 1.59028e-015 15.721 8.00395 -16.2164 90 2.98177e-016 -0 -22.1733 1.93494 -178.224 -74.5406 7.95139e-016 -6.36111e-015 -0.213853 2.69166 -5.34197 90 6.36111e-015 7.95139e-016 
108.072 79.3244 251.701 112.323 -43.681 31.1847 -0.116644 -0.835923 -4.50483 -0.298623 -1.65963 -9.0126 -0.298623 -1.65963 -9.01261 -8.3051e-012 -9.0191e-006 -5.27751e-005 5.15576 -9.16392 7.93899 178.648 3.69153 -69.8691 -15.1749 -11.4358 43.7971 -35.885 3.18055e-015 6.36111e-015 -62.3661 -27.2499 -46.6732 -178.062 5.95673 71.9457 -18.9036 -14.2787 -73.981 -67.8362 6.36111e-015 3.18055e-015 -53.8313 45.6481 48.3084 -42.4103 9.38263 -176.424 -50.3507 0 -0 20.8555 7.63078 -15.395 90 9.93923e-016 -3.18055e-015 -29.6832 0.305914 177.812 -88.0255 1.98785e-015 -0 0.279209 8.50967 -17.146 90 6.36111e-015 -0 
103.399 78.569 247.872 113.532 -46.1096 31.8195 -0.106611 -1.43768 -4.38424 -0.323013 -2.86252 -8.77509 -0.323014 -2.86252 -8.7751 -8.31146e-012 -9.0191e-006 -5.27751e-005 5.22969 -5.38902 8.70638 176.722 8.14492 -67.9882 -16.1374 -16.2947 37.9469 -16.6585 -6.36111e-015 -6.36111e-015 -36.9837 -34.7475 -24.7081 -178.012 6.02305 71.6993 -21.2505 -15.758 -75.4993 -63.7593 -3.18055e-015 -3.18055e-015 -55.7996 41.3426 47.4327 -38.4138 9.25477 -176.593 -53.2903 -3.18055e-015 3.18055e-015 25.9662 5.30838 -10.9893 90 3.97569e-016 3.18055e-015 -37.753 0.0830351 179.498 -94.5286 -7.95139e-016 3.18056e-015 1.82669 8.61483 -17.2812 90 -9.54166e-015 -0 
99.2408 79.2265 243.081 115.561 -50.2967 32.9461 -0.070771 -2.25687 -3.9211 -0.296283 -4.50313 -7.85393 -0.296284 -4.50313 -7.85394 -8.31066e-012 -9.0191e-006 -5.27751e-005 5.12413 -0.705062 7.25239 176.501 10.4878 -71.4317 -17.6336 -7.21203 37.4552 -10.5594 -1.59028e-015 4.57205e-015 -28.5627 -39.5465 -20.4331 -177.997 6.19114 72.0365 -23.9529 -16.7775 -75.2896 -59.4557 9.54166e-015 9.54166e-015 -47.3379 43.8856 40.865 -31.3087 10.993 -175.457 -51.6611 0 -1.27222e-014 29.3494 3.72643 -8.8524 90 1.59028e-015 -9.54166e-015 -43.8534 0.484145 -177.159 -94.2888 4.77083e-015 9.54167e-015 7.31988 4.55556 -8.96754 90 6.36111e-015 1.59028e-015 
95.2285 81.0333 237.448 121.798 -54.3195 37.0953 -0.359496 -2.74685 -3.12551 -0.87006 -5.46943 -6.27881 -0.87006 -5.46943 -6.27882 -8.30748e-012 -9.0191e-006 -5.27751e-005 4.21143 4.10022 4.67979 177.313 9.14919 -73.5579 -18.3199 -0.601938 39.9624 -11.831 -1.59028e-015 1.59028e-015 -38.2077 -41.2798 -32.1995 -177.766 6.76177 71.6681 -22.043 -18.7094 -72.8861 -57.7167 6.36111e-015 1.59028e-015 -38.4648 48.0265 34.821 -23.9992 13.6549 -174.19 -45.6563 9.54166e-015 9.54166e-015 27.947 2.69905 -7.88453 90 3.18055e-015 6.36111e-015 -48.7769 -0.369464 -173.234 -86.8004 0 6.36111e-015 12.919 0.890318 -1.74577 90 -9.54166e-015 9.54166e-015 
